<svg width="566" height="254" viewBox="0 0 566 254" fill="none" xmlns="http://www.w3.org/2000/svg">
<rect width="566" height="254" fill="white"/>
<circle cx="282.5" cy="182.5" r="32.5" fill="url(#paint0_linear_5879_1215)"/>
<path d="M265.1 188V177.431H266.579L272.014 185.122H272.124V177.431H273.72V188H272.241L266.813 180.324H266.696V188H265.1ZM279.565 188.154C277.229 188.154 275.8 186.594 275.8 184.03V184.016C275.8 181.459 277.236 179.892 279.565 179.892C281.887 179.892 283.322 181.452 283.322 184.016V184.03C283.322 186.594 281.894 188.154 279.565 188.154ZM279.565 186.828C280.927 186.828 281.704 185.788 281.704 184.03V184.016C281.704 182.25 280.927 181.218 279.565 181.218C278.195 181.218 277.426 182.25 277.426 184.016V184.03C277.426 185.795 278.195 186.828 279.565 186.828ZM288.12 188.132C286.12 188.132 284.824 186.528 284.824 184.03V184.016C284.824 181.496 286.098 179.907 288.12 179.907C289.211 179.907 290.141 180.449 290.566 181.306H290.69V176.926H292.272V188H290.69V186.748H290.566C290.104 187.619 289.233 188.132 288.12 188.132ZM288.574 186.777C289.899 186.777 290.712 185.729 290.712 184.03V184.016C290.712 182.316 289.892 181.269 288.574 181.269C287.241 181.269 286.442 182.309 286.442 184.016V184.03C286.442 185.737 287.241 186.777 288.574 186.777ZM297.978 188.154C295.649 188.154 294.243 186.564 294.243 184.045V184.038C294.243 181.555 295.678 179.892 297.897 179.892C300.117 179.892 301.479 181.496 301.479 183.884V184.44H295.839C295.869 185.964 296.704 186.85 298.015 186.85C299.033 186.85 299.641 186.345 299.831 185.935L299.86 185.876L301.391 185.869L301.376 185.935C301.113 186.982 300.014 188.154 297.978 188.154ZM297.905 181.196C296.821 181.196 296 181.936 295.861 183.305H299.904C299.78 181.884 298.981 181.196 297.905 181.196Z" fill="white"/>
<rect x="214" y="40" width="138" height="39" rx="1" stroke="black" stroke-width="2"/>
<path d="M236.586 59L239.893 49.8403H241.429L244.736 59H243.238L242.413 56.5244H238.909L238.078 59H236.586ZM240.604 51.4463L239.29 55.3818H242.032L240.712 51.4463H240.604ZM248.304 59.1143C246.571 59.1143 245.447 57.7241 245.447 55.5596V55.5469C245.447 53.3633 246.552 51.9858 248.304 51.9858C249.25 51.9858 250.056 52.4556 250.424 53.1982H250.532V49.4023H251.903V59H250.532V57.9146H250.424C250.024 58.6699 249.269 59.1143 248.304 59.1143ZM248.697 57.9399C249.846 57.9399 250.551 57.0322 250.551 55.5596V55.5469C250.551 54.0742 249.84 53.1665 248.697 53.1665C247.542 53.1665 246.85 54.0679 246.85 55.5469V55.5596C246.85 57.0386 247.542 57.9399 248.697 57.9399ZM253.953 59V52.1064H255.331V53.1665H255.432C255.737 52.4111 256.41 51.9731 257.311 51.9731C258.25 51.9731 258.917 52.4619 259.222 53.2046H259.33C259.679 52.4619 260.472 51.9731 261.431 51.9731C262.821 51.9731 263.633 52.811 263.633 54.2456V59H262.262V54.5757C262.262 53.6235 261.831 53.1538 260.929 53.1538C260.053 53.1538 259.476 53.8076 259.476 54.6392V59H258.104V54.436C258.104 53.6489 257.59 53.1538 256.778 53.1538C255.946 53.1538 255.331 53.8647 255.331 54.7661V59H253.953ZM266.274 50.875C265.798 50.875 265.411 50.4878 265.411 50.0181C265.411 49.542 265.798 49.1548 266.274 49.1548C266.744 49.1548 267.137 49.542 267.137 50.0181C267.137 50.4878 266.744 50.875 266.274 50.875ZM265.582 59V52.1064H266.953V59H265.582ZM268.959 59V52.1064H270.336V53.1538H270.438C270.774 52.4175 271.435 51.9731 272.438 51.9731C273.98 51.9731 274.831 52.8936 274.831 54.5376V59H273.459V54.8613C273.459 53.7188 272.983 53.1538 271.974 53.1538C270.965 53.1538 270.336 53.8457 270.336 54.9565V59H268.959ZM282.2 59.1143C280.886 59.1143 279.915 58.3145 279.915 57.064V57.0513C279.915 55.8198 280.842 55.1025 282.486 55.001L284.352 54.8931V54.2837C284.352 53.5283 283.876 53.1094 282.943 53.1094C282.181 53.1094 281.68 53.3887 281.515 53.8774L281.508 53.9028H280.182L280.188 53.8584C280.353 52.7285 281.438 51.9731 283.006 51.9731C284.739 51.9731 285.717 52.8364 285.717 54.2837V59H284.352V58.0225H284.244C283.838 58.7207 283.114 59.1143 282.2 59.1143ZM281.286 57.0068C281.286 57.6416 281.826 58.0161 282.568 58.0161C283.597 58.0161 284.352 57.3433 284.352 56.4546V55.8643L282.67 55.9722C281.718 56.0293 281.286 56.3721 281.286 56.9941V57.0068ZM290.56 59.1333C288.548 59.1333 287.316 57.7622 287.316 55.5342V55.5215C287.316 53.3379 288.542 51.9731 290.554 51.9731C292.287 51.9731 293.321 52.9507 293.512 54.29V54.3218L292.191 54.3281L292.185 54.3091C292.033 53.6299 291.474 53.1221 290.56 53.1221C289.411 53.1221 288.719 54.0361 288.719 55.5215V55.5342C288.719 57.0576 289.424 57.9844 290.56 57.9844C291.423 57.9844 291.957 57.5908 292.179 56.8481L292.191 56.8164H293.512L293.499 56.8735C293.251 58.2129 292.268 59.1333 290.56 59.1333ZM297.974 59.1333C295.962 59.1333 294.73 57.7622 294.73 55.5342V55.5215C294.73 53.3379 295.956 51.9731 297.968 51.9731C299.701 51.9731 300.735 52.9507 300.926 54.29V54.3218L299.605 54.3281L299.599 54.3091C299.447 53.6299 298.888 53.1221 297.974 53.1221C296.825 53.1221 296.133 54.0361 296.133 55.5215V55.5342C296.133 57.0576 296.838 57.9844 297.974 57.9844C298.837 57.9844 299.371 57.5908 299.593 56.8481L299.605 56.8164H300.926L300.913 56.8735C300.666 58.2129 299.682 59.1333 297.974 59.1333ZM305.407 59.1333C303.382 59.1333 302.145 57.7812 302.145 55.5596V55.5469C302.145 53.3315 303.389 51.9731 305.407 51.9731C307.419 51.9731 308.664 53.3252 308.664 55.5469V55.5596C308.664 57.7812 307.426 59.1333 305.407 59.1333ZM305.407 57.9844C306.588 57.9844 307.261 57.083 307.261 55.5596V55.5469C307.261 54.0171 306.588 53.1221 305.407 53.1221C304.22 53.1221 303.554 54.0171 303.554 55.5469V55.5596C303.554 57.0894 304.22 57.9844 305.407 57.9844ZM312.605 59.1333C311.05 59.1333 310.244 58.2002 310.244 56.5688V52.1064H311.622V56.2451C311.622 57.3877 312.041 57.9526 313.05 57.9526C314.154 57.9526 314.745 57.2607 314.745 56.1499V52.1064H316.116V59H314.745V57.959H314.637C314.307 58.7017 313.608 59.1333 312.605 59.1333ZM318.103 59V52.1064H319.48V53.1538H319.582C319.918 52.4175 320.578 51.9731 321.581 51.9731C323.124 51.9731 323.974 52.8936 323.974 54.5376V59H322.603V54.8613C322.603 53.7188 322.127 53.1538 321.118 53.1538C320.108 53.1538 319.48 53.8457 319.48 54.9565V59H318.103ZM328.5 59.0444C326.983 59.0444 326.361 58.5112 326.361 57.1846V53.1919H325.282V52.1064H326.361V50.3672H327.764V52.1064H329.243V53.1919H327.764V56.8545C327.764 57.5972 328.043 57.9019 328.722 57.9019C328.932 57.9019 329.052 57.8955 329.243 57.8765V58.9746C329.021 59.0127 328.767 59.0444 328.5 59.0444ZM265.055 72.1826C263.342 72.1826 262.321 70.6196 262.321 68.1274V68.1167C262.321 65.6245 263.342 64.0669 265.055 64.0669C266.769 64.0669 267.8 65.6245 267.8 68.1167V68.1274C267.8 70.6196 266.769 72.1826 265.055 72.1826ZM265.055 71.3394C266.167 71.3394 266.828 70.104 266.828 68.1274V68.1167C266.828 66.1401 266.167 64.9155 265.055 64.9155C263.943 64.9155 263.293 66.1401 263.293 68.1167V68.1274C263.293 70.104 263.943 71.3394 265.055 71.3394ZM268.826 72L270.808 69.105L268.804 66.21H269.905L271.28 68.3638H271.366L272.725 66.21H273.772L271.807 69.0674L273.799 72H272.704L271.334 69.814H271.248L269.873 72H268.826ZM277.688 72.1289C276.087 72.1289 275.051 71.2373 274.949 70.0127L274.943 69.9482H275.873L275.878 70.002C275.953 70.7646 276.657 71.291 277.688 71.291C278.703 71.291 279.396 70.7217 279.396 69.8999V69.8892C279.396 68.9385 278.714 68.4067 277.629 68.4067H276.657V67.5903H277.586C278.51 67.5903 279.154 67.021 279.154 66.2476V66.2368C279.154 65.4258 278.623 64.9585 277.677 64.9585C276.764 64.9585 276.114 65.4419 276.034 66.2261L276.028 66.2798H275.099L275.104 66.2261C275.228 64.9639 276.227 64.1206 277.677 64.1206C279.154 64.1206 280.126 64.9424 280.126 66.1187V66.1294C280.126 67.0854 279.45 67.7407 278.483 67.9448V67.9663C279.611 68.063 280.379 68.7666 280.379 69.8677V69.8784C280.379 71.1729 279.24 72.1289 277.688 72.1289ZM284.584 72.1289C282.984 72.1289 281.947 71.2373 281.845 70.0127L281.84 69.9482H282.769L282.774 70.002C282.85 70.7646 283.553 71.291 284.584 71.291C285.6 71.291 286.292 70.7217 286.292 69.8999V69.8892C286.292 68.9385 285.61 68.4067 284.525 68.4067H283.553V67.5903H284.482C285.406 67.5903 286.051 67.021 286.051 66.2476V66.2368C286.051 65.4258 285.519 64.9585 284.574 64.9585C283.661 64.9585 283.011 65.4419 282.93 66.2261L282.925 66.2798H281.996L282.001 66.2261C282.125 64.9639 283.124 64.1206 284.574 64.1206C286.051 64.1206 287.023 64.9424 287.023 66.1187V66.1294C287.023 67.0854 286.346 67.7407 285.379 67.9448V67.9663C286.507 68.063 287.275 68.7666 287.275 69.8677V69.8784C287.275 71.1729 286.137 72.1289 284.584 72.1289ZM291.583 72.1826C290.165 72.1826 288.667 71.1836 288.667 68.2671V68.2563C288.667 65.6138 289.768 64.0669 291.647 64.0669C292.947 64.0669 293.914 64.8296 294.177 65.9736L294.193 66.0435H293.221L293.2 65.9844C292.963 65.3345 292.421 64.9316 291.637 64.9316C290.229 64.9316 289.655 66.3066 289.596 67.9233C289.59 67.9824 289.59 68.0469 289.59 68.106H289.692C289.977 67.4722 290.708 66.9082 291.755 66.9082C293.21 66.9082 294.295 68.0146 294.295 69.5024V69.5132C294.295 71.0601 293.146 72.1826 291.583 72.1826ZM289.821 69.5024C289.821 70.5229 290.589 71.3286 291.572 71.3286C292.544 71.3286 293.323 70.5391 293.323 69.5347V69.5239C293.323 68.4927 292.593 67.7515 291.588 67.7515C290.584 67.7515 289.821 68.4873 289.821 69.4971V69.5024ZM296.24 72.0537C295.858 72.0537 295.542 71.7368 295.542 71.3555C295.542 70.9688 295.858 70.6572 296.24 70.6572C296.626 70.6572 296.938 70.9688 296.938 71.3555C296.938 71.7368 296.626 72.0537 296.24 72.0537ZM299.505 72.0537C299.124 72.0537 298.807 71.7368 298.807 71.3555C298.807 70.9688 299.124 70.6572 299.505 70.6572C299.892 70.6572 300.204 70.9688 300.204 71.3555C300.204 71.7368 299.892 72.0537 299.505 72.0537ZM302.771 72.0537C302.39 72.0537 302.073 71.7368 302.073 71.3555C302.073 70.9688 302.39 70.6572 302.771 70.6572C303.158 70.6572 303.469 70.9688 303.469 71.3555C303.469 71.7368 303.158 72.0537 302.771 72.0537Z" fill="black"/>
<rect x="29" y="166" width="138" height="39" rx="1" stroke="black" stroke-width="2"/>
<path d="M61.063 185.222C58.7651 185.222 57.3496 183.857 57.3496 181.845V175.84H58.7715V181.737C58.7715 183.064 59.603 183.965 61.063 183.965C62.5229 183.965 63.3481 183.064 63.3481 181.737V175.84H64.77V181.845C64.77 183.857 63.3672 185.222 61.063 185.222ZM69.4102 185.133C67.7471 185.133 66.6934 184.353 66.5601 183.197V183.191H67.9375L67.9438 183.197C68.1152 183.718 68.6167 184.067 69.4355 184.067C70.2861 184.067 70.8765 183.68 70.8765 183.115V183.102C70.8765 182.67 70.5527 182.378 69.7529 182.194L68.6548 181.94C67.3535 181.642 66.7505 181.052 66.7505 180.042V180.036C66.7505 178.836 67.8677 177.973 69.4292 177.973C71.0034 177.973 72.0127 178.76 72.1333 179.884V179.89H70.8193V179.877C70.686 179.395 70.1973 179.033 69.4229 179.033C68.6675 179.033 68.1216 179.408 68.1216 179.96V179.973C68.1216 180.404 68.439 180.671 69.2134 180.855L70.3052 181.103C71.6318 181.414 72.2666 181.979 72.2666 182.975V182.988C72.2666 184.264 71.0479 185.133 69.4102 185.133ZM76.8052 185.133C74.7866 185.133 73.5679 183.756 73.5679 181.572V181.566C73.5679 179.414 74.812 177.973 76.7354 177.973C78.6587 177.973 79.8394 179.363 79.8394 181.433V181.915H74.9517C74.9771 183.235 75.7007 184.003 76.8369 184.003C77.7192 184.003 78.2461 183.565 78.4111 183.21L78.4365 183.159L79.7632 183.153L79.7505 183.21C79.522 184.118 78.5698 185.133 76.8052 185.133ZM76.7417 179.103C75.8022 179.103 75.0913 179.744 74.9707 180.931H78.4746C78.3667 179.7 77.6748 179.103 76.7417 179.103ZM81.4771 185V178.106H82.8545V179.147H82.9561C83.2036 178.417 83.8447 177.986 84.7651 177.986C84.9873 177.986 85.2285 178.018 85.3682 178.049V179.319C85.1206 179.268 84.8857 179.236 84.6255 179.236C83.5718 179.236 82.8545 179.884 82.8545 180.88V185H81.4771ZM92.1284 185.114C90.8145 185.114 89.8433 184.314 89.8433 183.064V183.051C89.8433 181.82 90.77 181.103 92.4141 181.001L94.2803 180.893V180.284C94.2803 179.528 93.8042 179.109 92.8711 179.109C92.1094 179.109 91.6079 179.389 91.4429 179.877L91.4365 179.903H90.1099L90.1162 179.858C90.2812 178.729 91.3667 177.973 92.9346 177.973C94.6675 177.973 95.645 178.836 95.645 180.284V185H94.2803V184.022H94.1724C93.7661 184.721 93.0425 185.114 92.1284 185.114ZM91.2144 183.007C91.2144 183.642 91.7539 184.016 92.4966 184.016C93.5249 184.016 94.2803 183.343 94.2803 182.455V181.864L92.5981 181.972C91.646 182.029 91.2144 182.372 91.2144 182.994V183.007ZM100.488 185.133C98.4761 185.133 97.2446 183.762 97.2446 181.534V181.521C97.2446 179.338 98.4697 177.973 100.482 177.973C102.215 177.973 103.25 178.951 103.44 180.29V180.322L102.12 180.328L102.113 180.309C101.961 179.63 101.402 179.122 100.488 179.122C99.3394 179.122 98.6475 180.036 98.6475 181.521V181.534C98.6475 183.058 99.3521 183.984 100.488 183.984C101.352 183.984 101.885 183.591 102.107 182.848L102.12 182.816H103.44L103.427 182.874C103.18 184.213 102.196 185.133 100.488 185.133ZM107.902 185.133C105.89 185.133 104.659 183.762 104.659 181.534V181.521C104.659 179.338 105.884 177.973 107.896 177.973C109.629 177.973 110.664 178.951 110.854 180.29V180.322L109.534 180.328L109.527 180.309C109.375 179.63 108.816 179.122 107.902 179.122C106.753 179.122 106.062 180.036 106.062 181.521V181.534C106.062 183.058 106.766 183.984 107.902 183.984C108.766 183.984 109.299 183.591 109.521 182.848L109.534 182.816H110.854L110.841 182.874C110.594 184.213 109.61 185.133 107.902 185.133ZM115.335 185.133C113.311 185.133 112.073 183.781 112.073 181.56V181.547C112.073 179.332 113.317 177.973 115.335 177.973C117.348 177.973 118.592 179.325 118.592 181.547V181.56C118.592 183.781 117.354 185.133 115.335 185.133ZM115.335 183.984C116.516 183.984 117.189 183.083 117.189 181.56V181.547C117.189 180.017 116.516 179.122 115.335 179.122C114.148 179.122 113.482 180.017 113.482 181.547V181.56C113.482 183.089 114.148 183.984 115.335 183.984ZM122.534 185.133C120.979 185.133 120.172 184.2 120.172 182.569V178.106H121.55V182.245C121.55 183.388 121.969 183.953 122.978 183.953C124.083 183.953 124.673 183.261 124.673 182.15V178.106H126.044V185H124.673V183.959H124.565C124.235 184.702 123.537 185.133 122.534 185.133ZM128.031 185V178.106H129.408V179.154H129.51C129.846 178.417 130.506 177.973 131.509 177.973C133.052 177.973 133.902 178.894 133.902 180.538V185H132.531V180.861C132.531 179.719 132.055 179.154 131.046 179.154C130.037 179.154 129.408 179.846 129.408 180.957V185H128.031ZM138.428 185.044C136.911 185.044 136.289 184.511 136.289 183.185V179.192H135.21V178.106H136.289V176.367H137.692V178.106H139.171V179.192H137.692V182.854C137.692 183.597 137.971 183.902 138.65 183.902C138.86 183.902 138.98 183.896 139.171 183.876V184.975C138.949 185.013 138.695 185.044 138.428 185.044ZM80.1357 198.183C78.4224 198.183 77.4019 196.62 77.4019 194.127V194.117C77.4019 191.625 78.4224 190.067 80.1357 190.067C81.8491 190.067 82.8804 191.625 82.8804 194.117V194.127C82.8804 196.62 81.8491 198.183 80.1357 198.183ZM80.1357 197.339C81.2476 197.339 81.9082 196.104 81.9082 194.127V194.117C81.9082 192.14 81.2476 190.916 80.1357 190.916C79.0239 190.916 78.374 192.14 78.374 194.117V194.127C78.374 196.104 79.0239 197.339 80.1357 197.339ZM83.9062 198L85.8882 195.105L83.8848 192.21H84.9858L86.3608 194.364H86.4468L87.8057 192.21H88.853L86.8872 195.067L88.8799 198H87.7842L86.4146 195.814H86.3286L84.9536 198H83.9062ZM90.1313 198V197.334L92.7524 194.498C93.7407 193.429 94.0308 193.026 94.0308 192.35V192.339C94.0308 191.522 93.4775 190.91 92.5645 190.91C91.6353 190.91 91.0176 191.517 91.0176 192.43L91.0122 192.441L90.0884 192.436L90.0776 192.43C90.083 191.055 91.1465 190.067 92.6289 190.067C93.9824 190.067 95.019 190.985 95.019 192.237V192.248C95.019 193.134 94.6377 193.778 93.2358 195.223L91.4741 197.044V197.13H95.1479V198H90.1313ZM100.148 198V196.394H96.3726V195.513C97.4199 193.757 98.6069 191.866 99.6919 190.25H101.094V195.529H102.195V196.394H101.094V198H100.148ZM97.3608 195.535H100.154V191.146H100.089C99.2192 192.446 98.2041 194.047 97.3608 195.47V195.535ZM107.228 198V196.394H103.452V195.513C104.499 193.757 105.686 191.866 106.771 190.25H108.173V195.529H109.274V196.394H108.173V198H107.228ZM104.44 195.535H107.233V191.146H107.168C106.298 192.446 105.283 194.047 104.44 195.47V195.535ZM111.159 198.054C110.778 198.054 110.461 197.737 110.461 197.355C110.461 196.969 110.778 196.657 111.159 196.657C111.546 196.657 111.857 196.969 111.857 197.355C111.857 197.737 111.546 198.054 111.159 198.054ZM114.425 198.054C114.043 198.054 113.727 197.737 113.727 197.355C113.727 196.969 114.043 196.657 114.425 196.657C114.812 196.657 115.123 196.969 115.123 197.355C115.123 197.737 114.812 198.054 114.425 198.054ZM117.69 198.054C117.309 198.054 116.992 197.737 116.992 197.355C116.992 196.969 117.309 196.657 117.69 196.657C118.077 196.657 118.389 196.969 118.389 197.355C118.389 197.737 118.077 198.054 117.69 198.054Z" fill="black"/>
<rect x="399" y="166" width="138" height="39" rx="1" stroke="black" stroke-width="2"/>
<path d="M431.063 185.222C428.765 185.222 427.35 183.857 427.35 181.845V175.84H428.771V181.737C428.771 183.064 429.603 183.965 431.063 183.965C432.523 183.965 433.348 183.064 433.348 181.737V175.84H434.77V181.845C434.77 183.857 433.367 185.222 431.063 185.222ZM439.41 185.133C437.747 185.133 436.693 184.353 436.56 183.197V183.191H437.938L437.944 183.197C438.115 183.718 438.617 184.067 439.436 184.067C440.286 184.067 440.876 183.68 440.876 183.115V183.102C440.876 182.67 440.553 182.378 439.753 182.194L438.655 181.94C437.354 181.642 436.75 181.052 436.75 180.042V180.036C436.75 178.836 437.868 177.973 439.429 177.973C441.003 177.973 442.013 178.76 442.133 179.884V179.89H440.819V179.877C440.686 179.395 440.197 179.033 439.423 179.033C438.667 179.033 438.122 179.408 438.122 179.96V179.973C438.122 180.404 438.439 180.671 439.213 180.855L440.305 181.103C441.632 181.414 442.267 181.979 442.267 182.975V182.988C442.267 184.264 441.048 185.133 439.41 185.133ZM446.805 185.133C444.787 185.133 443.568 183.756 443.568 181.572V181.566C443.568 179.414 444.812 177.973 446.735 177.973C448.659 177.973 449.839 179.363 449.839 181.433V181.915H444.952C444.977 183.235 445.701 184.003 446.837 184.003C447.719 184.003 448.246 183.565 448.411 183.21L448.437 183.159L449.763 183.153L449.75 183.21C449.522 184.118 448.57 185.133 446.805 185.133ZM446.742 179.103C445.802 179.103 445.091 179.744 444.971 180.931H448.475C448.367 179.7 447.675 179.103 446.742 179.103ZM451.477 185V178.106H452.854V179.147H452.956C453.204 178.417 453.845 177.986 454.765 177.986C454.987 177.986 455.229 178.018 455.368 178.049V179.319C455.121 179.268 454.886 179.236 454.625 179.236C453.572 179.236 452.854 179.884 452.854 180.88V185H451.477ZM462.128 185.114C460.814 185.114 459.843 184.314 459.843 183.064V183.051C459.843 181.82 460.77 181.103 462.414 181.001L464.28 180.893V180.284C464.28 179.528 463.804 179.109 462.871 179.109C462.109 179.109 461.608 179.389 461.443 179.877L461.437 179.903H460.11L460.116 179.858C460.281 178.729 461.367 177.973 462.935 177.973C464.667 177.973 465.645 178.836 465.645 180.284V185H464.28V184.022H464.172C463.766 184.721 463.042 185.114 462.128 185.114ZM461.214 183.007C461.214 183.642 461.754 184.016 462.497 184.016C463.525 184.016 464.28 183.343 464.28 182.455V181.864L462.598 181.972C461.646 182.029 461.214 182.372 461.214 182.994V183.007ZM470.488 185.133C468.476 185.133 467.245 183.762 467.245 181.534V181.521C467.245 179.338 468.47 177.973 470.482 177.973C472.215 177.973 473.25 178.951 473.44 180.29V180.322L472.12 180.328L472.113 180.309C471.961 179.63 471.402 179.122 470.488 179.122C469.339 179.122 468.647 180.036 468.647 181.521V181.534C468.647 183.058 469.352 183.984 470.488 183.984C471.352 183.984 471.885 183.591 472.107 182.848L472.12 182.816H473.44L473.427 182.874C473.18 184.213 472.196 185.133 470.488 185.133ZM477.902 185.133C475.89 185.133 474.659 183.762 474.659 181.534V181.521C474.659 179.338 475.884 177.973 477.896 177.973C479.629 177.973 480.664 178.951 480.854 180.29V180.322L479.534 180.328L479.527 180.309C479.375 179.63 478.816 179.122 477.902 179.122C476.753 179.122 476.062 180.036 476.062 181.521V181.534C476.062 183.058 476.766 183.984 477.902 183.984C478.766 183.984 479.299 183.591 479.521 182.848L479.534 182.816H480.854L480.841 182.874C480.594 184.213 479.61 185.133 477.902 185.133ZM485.335 185.133C483.311 185.133 482.073 183.781 482.073 181.56V181.547C482.073 179.332 483.317 177.973 485.335 177.973C487.348 177.973 488.592 179.325 488.592 181.547V181.56C488.592 183.781 487.354 185.133 485.335 185.133ZM485.335 183.984C486.516 183.984 487.189 183.083 487.189 181.56V181.547C487.189 180.017 486.516 179.122 485.335 179.122C484.148 179.122 483.482 180.017 483.482 181.547V181.56C483.482 183.089 484.148 183.984 485.335 183.984ZM492.534 185.133C490.979 185.133 490.172 184.2 490.172 182.569V178.106H491.55V182.245C491.55 183.388 491.969 183.953 492.978 183.953C494.083 183.953 494.673 183.261 494.673 182.15V178.106H496.044V185H494.673V183.959H494.565C494.235 184.702 493.537 185.133 492.534 185.133ZM498.031 185V178.106H499.408V179.154H499.51C499.846 178.417 500.506 177.973 501.509 177.973C503.052 177.973 503.902 178.894 503.902 180.538V185H502.531V180.861C502.531 179.719 502.055 179.154 501.046 179.154C500.037 179.154 499.408 179.846 499.408 180.957V185H498.031ZM508.428 185.044C506.911 185.044 506.289 184.511 506.289 183.185V179.192H505.21V178.106H506.289V176.367H507.692V178.106H509.171V179.192H507.692V182.854C507.692 183.597 507.971 183.902 508.65 183.902C508.86 183.902 508.98 183.896 509.171 183.876V184.975C508.949 185.013 508.695 185.044 508.428 185.044ZM450.888 198.183C449.174 198.183 448.154 196.62 448.154 194.127V194.117C448.154 191.625 449.174 190.067 450.888 190.067C452.601 190.067 453.632 191.625 453.632 194.117V194.127C453.632 196.62 452.601 198.183 450.888 198.183ZM450.888 197.339C452 197.339 452.66 196.104 452.66 194.127V194.117C452.66 192.14 452 190.916 450.888 190.916C449.776 190.916 449.126 192.14 449.126 194.117V194.127C449.126 196.104 449.776 197.339 450.888 197.339ZM454.658 198L456.64 195.105L454.637 192.21H455.738L457.113 194.364H457.199L458.558 192.21H459.605L457.639 195.067L459.632 198H458.536L457.167 195.814H457.081L455.706 198H454.658ZM463.515 198.183C462.097 198.183 460.599 197.184 460.599 194.267V194.256C460.599 191.614 461.7 190.067 463.58 190.067C464.879 190.067 465.846 190.83 466.109 191.974L466.125 192.043H465.153L465.132 191.984C464.896 191.334 464.353 190.932 463.569 190.932C462.162 190.932 461.587 192.307 461.528 193.923C461.522 193.982 461.522 194.047 461.522 194.106H461.625C461.909 193.472 462.64 192.908 463.687 192.908C465.143 192.908 466.228 194.015 466.228 195.502V195.513C466.228 197.06 465.078 198.183 463.515 198.183ZM461.753 195.502C461.753 196.523 462.521 197.329 463.504 197.329C464.477 197.329 465.255 196.539 465.255 195.535V195.524C465.255 194.493 464.525 193.751 463.521 193.751C462.516 193.751 461.753 194.487 461.753 195.497V195.502ZM470.428 198.129C468.784 198.129 467.613 197.205 467.613 195.905V195.895C467.613 194.938 468.285 194.144 469.278 193.913V193.891C468.43 193.628 467.893 192.983 467.893 192.167V192.156C467.893 190.985 468.961 190.121 470.428 190.121C471.894 190.121 472.963 190.985 472.963 192.156V192.167C472.963 192.983 472.426 193.628 471.577 193.891V193.913C472.571 194.144 473.242 194.938 473.242 195.895V195.905C473.242 197.205 472.071 198.129 470.428 198.129ZM470.428 193.531C471.362 193.531 472.001 193 472.001 192.248V192.237C472.001 191.485 471.362 190.953 470.428 190.953C469.493 190.953 468.854 191.485 468.854 192.237V192.248C468.854 193 469.493 193.531 470.428 193.531ZM470.428 197.286C471.497 197.286 472.259 196.684 472.259 195.846V195.835C472.259 194.987 471.502 194.38 470.428 194.38C469.354 194.38 468.596 194.987 468.596 195.835V195.846C468.596 196.684 469.359 197.286 470.428 197.286ZM476.701 198V191.324H476.615L474.644 192.752V191.732L476.707 190.25H477.668V198H476.701ZM480.407 198.054C480.026 198.054 479.709 197.737 479.709 197.355C479.709 196.969 480.026 196.657 480.407 196.657C480.794 196.657 481.105 196.969 481.105 197.355C481.105 197.737 480.794 198.054 480.407 198.054ZM483.673 198.054C483.292 198.054 482.975 197.737 482.975 197.355C482.975 196.969 483.292 196.657 483.673 196.657C484.06 196.657 484.371 196.969 484.371 197.355C484.371 197.737 484.06 198.054 483.673 198.054ZM486.938 198.054C486.557 198.054 486.24 197.737 486.24 197.355C486.24 196.969 486.557 196.657 486.938 196.657C487.325 196.657 487.637 196.969 487.637 197.355C487.637 197.737 487.325 198.054 486.938 198.054Z" fill="black"/>
<path d="M283 147L288.774 137L277.226 137L283 147ZM283 80L282 80L282 82.7917L283 82.7917L284 82.7917L284 80L283 80ZM283 88.375L282 88.375L282 93.9583L283 93.9583L284 93.9583L284 88.375L283 88.375ZM283 99.5417L282 99.5417L282 105.125L283 105.125L284 105.125L284 99.5417L283 99.5417ZM283 110.708L282 110.708L282 116.292L283 116.292L284 116.292L284 110.708L283 110.708ZM283 121.875L282 121.875L282 127.458L283 127.458L284 127.458L284 121.875L283 121.875ZM283 133.042L282 133.042L282 138.625L283 138.625L284 138.625L284 133.042L283 133.042ZM283 147L288.774 137L277.226 137L283 147ZM283 80L282 80L282 82.7917L283 82.7917L284 82.7917L284 80L283 80ZM283 88.375L282 88.375L282 93.9583L283 93.9583L284 93.9583L284 88.375L283 88.375ZM283 99.5417L282 99.5417L282 105.125L283 105.125L284 105.125L284 99.5417L283 99.5417ZM283 110.708L282 110.708L282 116.292L283 116.292L284 116.292L284 110.708L283 110.708ZM283 121.875L282 121.875L282 127.458L283 127.458L284 127.458L284 121.875L283 121.875ZM283 133.042L282 133.042L282 138.625L283 138.625L284 138.625L284 133.042L283 133.042Z" fill="black"/>
<path d="M247 186L237 180.226V191.774L247 186ZM168 186V187H170.821V186V185H168V186ZM176.464 186V187H182.107V186V185H176.464V186ZM187.75 186V187H193.393V186V185H187.75V186ZM199.036 186V187H204.679V186V185H199.036V186ZM210.321 186V187H215.964V186V185H210.321V186ZM221.607 186V187H227.25V186V185H221.607V186ZM232.893 186V187H238.536V186V185H232.893V186ZM247 186L237 180.226V191.774L247 186ZM168 186V187H170.821V186V185H168V186ZM176.464 186V187H182.107V186V185H176.464V186ZM187.75 186V187H193.393V186V185H187.75V186ZM199.036 186V187H204.679V186V185H199.036V186ZM210.321 186V187H215.964V186V185H210.321V186ZM221.607 186V187H227.25V186V185H221.607V186ZM232.893 186V187H238.536V186V185H232.893V186Z" fill="black"/>
<path d="M318 186.01L328.001 191.782L327.999 180.235L318 186.01ZM400 186L400 185L397.071 185L397.071 186L397.072 187L400 187L400 186ZM391.214 186.001L391.214 185.001L385.357 185.002L385.357 186.002L385.357 187.002L391.214 187.001L391.214 186.001ZM379.5 186.003L379.5 185.003L373.643 185.003L373.643 186.003L373.643 187.003L379.5 187.003L379.5 186.003ZM367.786 186.004L367.786 185.004L361.928 185.005L361.929 186.005L361.929 187.005L367.786 187.004L367.786 186.004ZM356.071 186.005L356.071 185.005L350.214 185.006L350.214 186.006L350.214 187.006L356.072 187.005L356.071 186.005ZM344.357 186.007L344.357 185.007L338.5 185.008L338.5 186.008L338.5 187.008L344.357 187.007L344.357 186.007ZM332.643 186.008L332.643 185.008L326.786 185.009L326.786 186.009L326.786 187.009L332.643 187.008L332.643 186.008ZM318 186.01L328.001 191.782L327.999 180.235L318 186.01ZM400 186L400 185L397.071 185L397.071 186L397.072 187L400 187L400 186ZM391.214 186.001L391.214 185.001L385.357 185.002L385.357 186.002L385.357 187.002L391.214 187.001L391.214 186.001ZM379.5 186.003L379.5 185.003L373.643 185.003L373.643 186.003L373.643 187.003L379.5 187.003L379.5 186.003ZM367.786 186.004L367.786 185.004L361.928 185.005L361.929 186.005L361.929 187.005L367.786 187.004L367.786 186.004ZM356.071 186.005L356.071 185.005L350.214 185.006L350.214 186.006L350.214 187.006L356.072 187.005L356.071 186.005ZM344.357 186.007L344.357 185.007L338.5 185.008L338.5 186.008L338.5 187.008L344.357 187.007L344.357 186.007ZM332.643 186.008L332.643 185.008L326.786 185.009L326.786 186.009L326.786 187.009L332.643 187.008L332.643 186.008Z" fill="black"/>
<circle cx="208" cy="186" r="12" fill="#DE4949" stroke="white" stroke-width="2"/>
<path fill-rule="evenodd" clip-rule="evenodd" d="M204.305 190.043L211.154 182.874L204.305 190.043Z" stroke="white" stroke-width="2" stroke-linecap="round" stroke-linejoin="round"/>
<path d="M211.315 189.883L204.145 183.034" stroke="white" stroke-width="2" stroke-linecap="round" stroke-linejoin="round"/>
<circle cx="360" cy="187" r="12" fill="#DE4949" stroke="white" stroke-width="2"/>
<path fill-rule="evenodd" clip-rule="evenodd" d="M356.305 191.043L363.154 183.874L356.305 191.043Z" stroke="white" stroke-width="2" stroke-linecap="round" stroke-linejoin="round"/>
<path d="M363.315 190.883L356.145 184.034" stroke="white" stroke-width="2" stroke-linecap="round" stroke-linejoin="round"/>
<circle cx="283" cy="108" r="12" fill="#59D0A0" stroke="white" stroke-width="2"/>
<path d="M281.773 113.827C281.422 113.827 281.172 113.686 280.93 113.389L277.742 109.343C277.57 109.132 277.5 108.936 277.5 108.725C277.5 108.257 277.844 107.921 278.328 107.921C278.625 107.921 278.828 108.03 279.031 108.288L281.742 111.858L286.953 103.546C287.156 103.218 287.352 103.1 287.688 103.1C288.164 103.1 288.492 103.428 288.492 103.897C288.492 104.085 288.438 104.272 288.289 104.499L282.609 113.382C282.406 113.678 282.133 113.827 281.773 113.827Z" fill="white"/>
<defs>
<linearGradient id="paint0_linear_5879_1215" x1="347.5" y1="180.183" x2="277.866" y2="115.183" gradientUnits="userSpaceOnUse">
<stop stop-color="#1AA1A1"/>
<stop offset="1" stop-color="#126E6E"/>
</linearGradient>
</defs>
</svg>
